<svg width="78" height="122" viewBox="0 0 78 122" fill="none" xmlns="http://www.w3.org/2000/svg">
<path fill-rule="evenodd" clip-rule="evenodd" d="M26.834 2.21368C31.3545 1.80521 63.5812 31.2596 67.9105 58.2014C69.5913 68.6248 62.0824 83.1936 48.8508 95.2959C46.6687 97.291 45.1538 98.6329 43.3525 101.096C43.2325 101.245 44.5539 101.11 46.3041 100.766C50.448 99.9516 52.7453 100.46 54.0013 102.49C54.6014 103.478 54.3428 103.759 52.8139 103.788C48.4262 103.857 44.416 105.46 39.3493 109.233C37.3569 110.711 33.9153 110.009 36.2759 102.634C38.2728 96.3942 39.0687 92.2494 39.5576 85.2207C39.8812 80.6676 41.8299 79.9295 42.9117 83.9349C43.2875 85.3226 43.0114 90.1796 42.289 94.999L41.9135 97.4533C47.281 92.5141 47.6354 92.2356 51.6633 87.7895C61.2264 77.2019 65.7453 66.6246 64.4178 57.8857C61.0466 35.7879 39.3419 15.2066 26.4601 3.08075C26.1066 2.75351 26.3149 2.2531 26.834 2.21368Z" fill="white"/>
</svg>
